<?xml version="1.0" encoding="utf-8"?>
<!-- Generator: Adobe Illustrator 22.1.0, SVG Export Plug-In . SVG Version: 6.00 Build 0)  -->
<svg version="1.1" id="Ebene_1" xmlns="http://www.w3.org/2000/svg" xmlns:xlink="http://www.w3.org/1999/xlink" x="0px" y="0px"
	 viewBox="0 0 20 20" style="enable-background:new 0 0 20 20;" xml:space="preserve">
<style type="text/css">
	.st0{fill:none;stroke:#FFFFFF;stroke-width:0.5;stroke-linejoin:round;stroke-miterlimit:10;}
</style>
<g>
	<path class="st0" d="M10.7,17.5l-8.4-1.5c0,0-1.8-1.3,0-2.8l8.4,1.3l7.9-4.6c0,0-1.1,1.7,0,3L10.7,17.5z"/>
	<path class="st0" d="M10.7,17.5c0,0-1.5-1.1-0.1-3"/>
	<path class="st0" d="M18.5,9.8c0,0-1.1,1.7,0,3l-7.8,4.6l-8.4-1.5c0,0-1.8-1.3,0-2.8l8.4,1.3"/>
	<path class="st0" d="M10.6,14.5"/>
	<path class="st0" d="M10.7,17.5"/>
	<path class="st0" d="M2.3,13.1c0,0-1.8-1.7,0-3.2l8.4,1.5l7.9-4.6c0,0-1.1,1.7,0,3"/>
	<path class="st0" d="M10.7,14.4"/>
	<path class="st0" d="M10.7,11.4"/>
	<path class="st0" d="M10.7,14.4"/>
	<path class="st0" d="M10.7,14.4c0,0-1.3-1.1-0.1-3"/>
	<path class="st0" d="M2.3,9.9c0,0-1.8-1.3,0-2.8l8.3,1.3l7.9-4.6c0,0-1,1.7,0.1,3"/>
	<path class="st0" d="M10.6,11.4c0,0-1.4-1.3-0.1-3"/>
	<path class="st0" d="M18.6,6.8"/>
	<path class="st0" d="M10.5,6.5"/>
	<path class="st0" d="M2.3,7.1l7.5-4.5l8.7,1.3l-7.9,4.6L2.3,7.1c-1.8,1.5,0,2.8,0,2.8"/>
</g>
</svg>
