<?xml version="1.0" encoding="utf-8"?>
<!-- Generator: Adobe Illustrator 23.0.2, SVG Export Plug-In . SVG Version: 6.00 Build 0)  -->
<svg version="1.1" id="Ebene_1" xmlns="http://www.w3.org/2000/svg" xmlns:xlink="http://www.w3.org/1999/xlink" x="0px" y="0px"
	 viewBox="0 0 258 62" style="enable-background:new 0 0 258 62;" xml:space="preserve">
<style type="text/css">
	.st0{fill:#EBEBEB;}
	.st1{fill:#FFFFFF;}
</style>
<g>
	<path class="st0" d="M136.7,4c0,4.3,0,8.7,0,13c0,0.3-0.2,0.8,0.2,1c0.4,0.2,0.6-0.3,0.8-0.5c1.1-1.1,2.1-2.1,3.7-2.7
		c2.1-0.7,4.4,0.3,5.3,2.3c0.5,1.3,0.9,2.6,0.9,4c0,2.4,0,4.8,0,7.2c0,1-0.3,1.5-1.4,1.4c-0.3,0-0.5,0-0.8,0
		c-0.9,0.1-1.2-0.4-1.2-1.2c0-2,0-4,0-6c0-0.9-0.1-1.9-0.3-2.8c-0.4-1.7-1.3-2.4-3-2.2c-2.2,0.1-4.2,2.2-4.2,4.4c0,2.2,0,4.3,0,6.5
		c0,1-0.3,1.4-1.3,1.4c-2.2,0-2.2,0-2.2-2.2c0-5.7,0-11.4,0-17c0-0.6,0-1.2-0.1-1.8c-0.2-1.3-0.6-1.6-1.9-1.6
		c-0.3,0-0.7,0.2-0.8-0.2c-0.2-0.5,0.3-0.7,0.6-0.9c0.9-0.4,1.9-0.8,2.8-1.2c0.4-0.2,0.8-0.3,0.9-0.8C135.5,4,136.1,4,136.7,4z"/>
	<path class="st1" d="M11.3,39.6c2.9-0.2,5.7-0.1,8.6-0.1c1.8,0,3.6,0,5.4,0c0.9,0,1.3,0.3,1.3,1.2c0,0.9,0.1,1.8,0.1,2.7
		c0,0.3,0.1,0.6-0.3,0.6c-0.3,0-0.3-0.3-0.4-0.5c-0.9-2.4-2.7-3.3-5.3-2.7c-0.7,0.2-0.5,0.7-0.5,1.1c0,3.8,0,7.5,0,11.3
		c0,1,0,2,0,3.1c0,1.5,0.3,1.9,1.9,2.2c0.2,0,0.5,0,0.5,0.3c0,0.2-0.2,0.3-0.4,0.3c-2.4,0-4.8,0.1-7.2-0.1c-0.1,0-0.1-0.1-0.2-0.2
		c0.1-0.4,0.4-0.3,0.6-0.3c1.5-0.3,1.9-0.7,1.9-2.2c0-4.8,0-9.6,0-14.5c0-0.8-0.3-1.1-1-1c-0.5,0-1,0-1.5,0c-1.8,0-2.6,0.7-3.1,2.4
		c-0.1,0.4,0,0.9-0.7,0.9c0-1.3,0-2.5,0-3.8C11.3,40.2,11.2,39.9,11.3,39.6z"/>
	<path class="st1" d="M227.4,59.5c0-0.4-0.2-0.6-0.4-0.8c-2.5-3.3-5.1-6.5-7.7-9.8c-0.2-0.2-0.3-0.4-0.5-0.6c-0.5,0.3-0.3,0.7-0.3,1
		c0,2.2,0,4.3,0,6.5c0,1.4-0.5,3.1,2.2,3.1c-0.1,0.1-0.2,0.2-0.3,0.3c-1.5,0-3.1,0-4.7,0c0-0.1,0-0.3,0-0.3c1.7-0.5,1.8-0.6,1.8-2.5
		c0-2.8,0-5.6,0-8.3c0-2-0.3-2.4-2.2-3c-0.1,0-0.3-0.1-0.4-0.2c1.4-0.8,3.6-0.3,4.5,0.8c2.2,2.8,4.3,5.6,6.5,8.3
		c0.3,0.3,0.4,0.7,0.9,0.9c0.4-0.4,0.2-0.8,0.2-1.2c0-1.8,0-3.7,0-5.5c0-2.4,0-2.4-2.1-3.5c1.8,0,3.4,0,5,0
		c-0.1,0.4-0.3,0.4-0.5,0.4c-1,0.1-1.4,0.7-1.4,1.7c0,4.3,0,8.5,0,12.8C227.9,59.5,227.7,59.5,227.4,59.5z"/>
	<path class="st1" d="M181.8,59.5c0-0.3-0.1-0.4-0.2-0.6c-2.6-3.4-5.3-6.8-7.9-10.2c-0.1-0.2-0.2-0.3-0.3-0.5
		c-0.6,0.3-0.4,0.7-0.4,1c0,2.2,0,4.5,0,6.7c0,2.2,0,2.2,2.1,3.1c-1.9,0-3.4,0-5,0c0.2-0.5,0.5-0.4,0.7-0.4c0.7-0.1,1.1-0.6,1.1-1.3
		c0-3.5,0-7,0-10.4c0-0.9-0.7-1.4-1.5-1.8c-0.3-0.2-0.8-0.1-1.1-0.4c1.7-0.7,3.7-0.3,4.7,1c2.1,2.7,4.2,5.4,6.3,8.1
		c0.3,0.4,0.6,0.7,1,1.2c0.4-0.6,0.2-1.1,0.2-1.6c0-1.9,0-3.8,0-5.6c0-2.1,0-2.1-1.8-3.1c1.6,0,3.1,0,4.7,0c0,0.1,0,0.2,0,0.3
		c-1.8,0.6-1.8,0.6-1.8,2.5c0,4,0,8.1,0,12.1C182.3,59.5,182.1,59.5,181.8,59.5z"/>
	<path class="st1" d="M100.5,59.5c-0.3-0.4-0.7-0.4-1.1-0.6c-3-1.5-4.5-5.1-3.7-9c0.7-3.2,3.2-5.5,6.4-5.8c3.5-0.2,6.7,2.6,7.1,6.4
		c0.5,4.1-1.2,7-4.9,8.7c-0.1,0-0.2,0.2-0.3,0.2C102.9,59.5,101.7,59.5,100.5,59.5z M106.7,51.7c0-1.3-0.1-2.8-0.7-4.2
		c-0.7-1.6-1.9-2.6-3.7-2.6c-1.8,0-3,0.9-3.6,2.5c-1.1,2.9-1.1,5.8,0.1,8.7c0.6,1.5,1.8,2.5,3.5,2.4c1.8,0,3-1,3.8-2.5
		C106.7,54.8,106.7,53.4,106.7,51.7z"/>
	<path class="st1" d="M66.2,59.5c-0.2-0.4-0.6-0.4-1-0.6c-2.9-1.6-4-4.1-4-7.3c0.1-3.1,1.3-5.5,4.1-6.8c3.5-1.7,7.4,0,9,3.8
		c1.4,3.3,0.3,7.4-2.5,9.7c-0.7,0.6-1.6,0.7-2.2,1.2C68.6,59.5,67.4,59.5,66.2,59.5z M72.6,52c0-1.5-0.2-3-0.8-4.5
		C71.1,46,70,45.1,68.3,45c-1.8-0.1-3,0.8-3.7,2.3c-1.2,2.9-1.2,5.9,0.1,8.9c0.7,1.5,1.8,2.4,3.6,2.4c1.8-0.1,2.9-1,3.6-2.5
		C72.4,54.8,72.5,53.4,72.6,52z"/>
	<path class="st1" d="M158.1,59.5c-0.2-0.1-0.3-0.3-0.5-0.3c-5.5-2.1-5.5-9.5-2.8-12.5c1.9-2.1,4.7-3,7.3-2.2
		c2.6,0.8,4.5,3.5,4.7,6.5c0.3,3.8-1.5,7.1-5,8.4c-0.1,0-0.1,0.1-0.2,0.2C160.5,59.5,159.3,59.5,158.1,59.5z M155.5,51.9
		c0,1.5,0.2,3,1,4.5c0.7,1.4,1.8,2.2,3.4,2.2c1.7,0,2.9-0.7,3.6-2.2c1.4-3.1,1.3-6.3-0.2-9.4c-0.7-1.4-1.9-2-3.5-2
		c-1.5,0-2.6,0.7-3.3,2.1C155.8,48.5,155.5,50.1,155.5,51.9z"/>
	<path class="st1" d="M246,56.2c-0.6,0.6-0.6,1.5-0.9,2.3c-0.2,0.4-0.4,0.7-0.9,0.7c-3.2,0-6.5,0-9.7,0c-0.1,0-0.2-0.1-0.3-0.1
		c0-0.1,0-0.2,0.1-0.2c2-0.4,1.7-0.9,1.8-2.4c0-2.8,0-5.6,0-8.3c0-2.3,0-2.3-1.9-3.3c0.3-0.4,0.6-0.2,1-0.2c2.9,0,5.7,0,8.6,0
		c1,0,1.4,0.3,1.3,1.3c-0.1,0.6,0.2,1.3-0.1,1.9c-0.2,0-0.3-0.1-0.4-0.3c-0.8-1.9-0.9-2-2.9-2c-0.8,0-1.6,0-2.3,0
		c-0.8,0-1.1,0.3-1.1,1.1c0,1.2,0,2.3,0,3.5c0,0.7,0.3,1.1,1,1.1c0.4,0,0.8,0,1.2,0c2.3,0,2.3,0,3.1-2c0.5,0.7,0.5,3.8,0.1,4.8
		c-0.3,0-0.3-0.3-0.3-0.5c-0.2-0.9-0.7-1.3-1.6-1.4c-3.2-0.5-3.5-0.3-3.5,2.9c0,0.8,0,1.6,0,2.3c0,0.7,0.4,1.1,1.1,1.1
		c0.8,0,1.6,0,2.3,0c1.6,0.1,2.8-0.6,3.5-2c0.2-0.4,0.5-0.8,0.9-1C246,55.5,246,55.9,246,56.2z"/>
	<path class="st0" d="M157.2,4c0,0.5,0.4,0.8,0.6,1.3c0.4,0.9,0.2,2.2-0.5,2.7c-0.7,0.6-1.6,0.6-2.4,0.2c-0.8-0.4-1.1-1.4-0.9-2.6
		c0.1-0.7,0.6-1.1,0.9-1.6C155.6,4,156.4,4,157.2,4z"/>
	<path class="st1" d="M11.3,39.6c-0.1,0.3,0,0.6-0.3,0.8c0-0.3,0-0.6,0-0.9C11.1,39.5,11.2,39.6,11.3,39.6z"/>
	<path class="st0" d="M92.3,29.6c-2,0-2,0-2.7-1.8c-1-2.4-0.6-2.1-3.2-2.2c-2.2,0-4.4,0.1-6.6,0c-1.2,0-1.9,0.3-2.2,1.5
		c-0.1,0.6-0.4,1.2-0.7,1.8c-0.3,0.8-1,0.9-1.6,0.7c-0.7-0.3-0.3-0.9-0.2-1.3c2.2-5.8,4.5-11.6,6.8-17.4c0.7-1.7,1.4-3.4,2-5.1
		c0.1-0.4,0.2-0.8,0.7-0.9c0.5,0,0.7,0.5,0.8,0.9c2.2,5.7,4.3,11.3,6.5,17c0.7,1.7,1.2,3.6,2,5.3c0.7,1.4,0.5,1.6-1.1,1.6
		C92.7,29.6,92.5,29.6,92.3,29.6z M83.6,12.4c-0.2,0.2-0.3,0.3-0.3,0.4c-1.3,3.3-2.6,6.6-4,9.9c-0.3,0.8,0.1,1.1,0.8,1.1
		c2.2,0,4.4,0,6.7,0c1.2,0,1.2-0.1,0.8-1.2c-1-2.6-1.9-5.2-2.9-7.8C84.4,14,84.2,13.1,83.6,12.4z"/>
	<path class="st1" d="M142.2,39.5c1.9,0,3.8,0,5.8,0c1,0,1.3,0.3,1.3,1.3c0,0.9,0.1,1.7,0.1,2.6c0,0.2,0,0.4-0.2,0.5
		c-0.2,0-0.3-0.1-0.4-0.3c-0.1-0.4-0.3-0.7-0.4-1.1c-0.5-0.9-1.2-1.5-2.3-1.6c-1.5-0.2-3-0.1-4.5-0.1c-0.6,0-0.9,0.2-0.9,0.8
		c0,2,0,3.9,0,5.9c0,0.7,0.3,1,1,0.9c0.7,0,1.3,0,2,0c1.7,0,2.1-0.3,2.6-1.9c0.1-0.2,0-0.6,0.4-0.6c0.4,0,0.3,0.5,0.3,0.8
		c0,1.7,0,3.4,0,5c0,0.3,0.1,0.6-0.3,0.7c-0.4,0-0.3-0.4-0.4-0.6c-0.3-1.5-0.8-1.9-2.4-2c-3.3-0.1-3.3-0.1-3.3,3.2
		c0,1.2,0,2.4,0,3.6c0.1,1.4,0.5,1.8,1.9,2.1c0.2,0,0.6-0.1,0.7,0.3c0,0.4-0.4,0.3-0.6,0.3c-2.2,0-4.4,0-6.6,0c-0.2,0-0.6,0-0.6-0.3
		c0-0.4,0.4-0.3,0.6-0.4c1.5-0.3,1.9-0.7,1.9-2.2c0-4.7,0-9.4,0-14.1c0-1.4-0.4-1.8-1.9-2.1c-0.3,0-0.7,0-0.6-0.4
		c0-0.3,0.4-0.3,0.7-0.3C138.2,39.6,140.2,39.6,142.2,39.5C142.2,39.6,142.2,39.6,142.2,39.5z"/>
	<path class="st1" d="M27.6,44.6c2.1,0,4,0,6,0C33.4,45,33.1,45,32.9,45c-0.7,0.1-1.1,0.6-1.1,1.3c0,1.4,0,2.7-0.1,4.1
		c0,0.6,0.3,0.8,0.9,0.8c1.6,0,3.1,0,4.7,0c0.6,0,0.8-0.3,0.8-0.9c0-1.2,0-2.4,0-3.6c0-1.1-0.4-1.7-1.5-1.8c-0.2,0-0.3,0-0.4-0.4
		c2-0.2,3.9-0.1,5.9,0c-1.9,1.1-1.9,1.1-1.9,3.6c0,2.5,0,5,0,7.5c0,2.3,0,2.3,2.1,3.4c-2.1,0-4,0-5.9,0c0-0.4,0.3-0.4,0.5-0.4
		c0.8-0.1,1.2-0.7,1.3-1.5c0-1.4,0-2.8,0-4.2c0-0.6-0.2-0.9-0.8-0.9c-1.6,0-3.1,0-4.7,0c-0.7,0-0.9,0.3-0.9,0.9c0,0.9,0,1.9,0,2.8
		c0,1.4-0.2,2.9,2.2,2.9c-0.1,0.1-0.2,0.2-0.3,0.3c-1.9,0-3.8,0-5.7,0c0-0.1,0-0.2,0.1-0.3c1.7-0.6,1.7-0.6,1.7-2.4
		c0-2.8,0-5.6,0-8.3C29.6,45.7,29.6,45.7,27.6,44.6z"/>
	<path class="st1" d="M118.1,59c-1.9,0-3.9,0-5.8,0c0.1-0.3,0.2-0.3,0.4-0.4c1.3-0.3,1.5-0.5,1.5-1.9c0-2.5,0-5,0-7.5
		c0-0.7,0-1.4,0-2.1c0-1.7-0.1-1.8-1.7-2.2c-0.1,0-0.1-0.2-0.2-0.2c0-0.1,0-0.1,0-0.1c2.8-0.2,5.5-0.4,8.3,0.3
		c1.6,0.4,2.5,1.7,2.6,3.3c0.1,1.5-0.7,2.9-2.2,3.5c-1,0.4-1,0.7-0.4,1.5c0.8,1.1,1.6,2.3,2.4,3.5c0.8,1.1,1.8,1.9,3.3,2.2
		c-1.9,0.9-3.9,0.5-4.9-1c-1-1.5-2.1-3-3.1-4.5c-0.2-0.2-0.3-0.4-0.5-0.6c-0.3-0.3-0.7-0.3-1.1-0.2c-0.5,0.1-0.4,0.5-0.4,0.9
		c0,0.9-0.1,1.8,0,2.7C116.4,57.8,115.9,58.1,118.1,59z M116.3,48.6c0,0.5,0,0.9,0,1.4c0,1.6,0.2,1.8,1.9,1.5
		c0.3-0.1,0.5-0.1,0.8-0.2c1.3-0.6,2.1-2,1.8-3.5c-0.3-1.4-1.4-2.4-2.9-2.4c-1.3,0-1.5,0.2-1.5,1.6C116.3,47.5,116.3,48,116.3,48.6z
		"/>
	<path class="st1" d="M78.1,58.9c1.8-0.7,1.9-0.7,1.9-2.8c0-2.8,0-5.6,0-8.3c0-2.2,0-2.2-1.8-3c0-0.2,0.1-0.3,0.3-0.3
		c2.6,0,5.2-0.1,7.7,0.2c3.5,0.4,5.8,3,5.9,6.6c0,1.2,0,2.4-0.5,3.6c-1.1,2.7-3.2,4.1-6,4.3c-2.3,0.2-4.7,0.1-7,0.1
		C78.4,59.2,78.3,59.1,78.1,58.9z M82,51.8c0,1.8,0,3.5,0,5.3c0,0.7,0.2,1,1,1.2c2.8,0.5,5.3-0.8,6.2-3.4c0.7-2,0.7-4,0-6
		c-1-2.6-3.4-3.8-6.1-3.4c-0.8,0.1-1,0.5-1,1.2C82.1,48.4,82,50.1,82,51.8z"/>
	<path class="st0" d="M105.9,18.4c1-1,1.4-2,2.2-2.7c0.5-0.4,0.9-0.8,1.5-1c1-0.4,2-0.2,2.7,0.6c0.8,0.8,0.8,1.8,0.5,2.7
		c-0.3,0.9-1.3,1.3-2.3,0.8c-0.1,0-0.1-0.1-0.2-0.1c-0.8-0.3-1.4-1.6-2.3-0.9c-1.1,0.9-2,2.1-2,3.7c-0.1,2.2,0,4.3,0,6.5
		c0,1.5-0.1,1.5-1.6,1.5c-1.8,0-1.9-0.1-1.9-1.6c0-2.6,0-5.2,0-7.9c0-2.1-0.2-2.3-2.3-2.5c-0.3,0-0.5,0-0.6-0.3
		c-0.1-0.3,0.1-0.5,0.4-0.6c1.6-0.7,3.2-1.4,4.9-2.1c0.7-0.3,1.1,0,1.1,0.8C105.9,16.4,105.9,17.3,105.9,18.4z"/>
	<path class="st0" d="M113.7,25.6c-0.1-3.7,1-6.7,3.6-9.1c3-2.7,7.7-2.6,10.3,0.3c0.5,0.6,0.9,1.3,1.1,2c0.3,1.2-0.3,2.2-1.3,2.5
		c-1.2,0.3-2.2-0.3-2.5-1.5c-0.1-0.3-0.2-0.7-0.2-1c0-2.9-3.3-3.3-5-2c-1.9,1.5-2.3,3.5-2.5,5.7c-0.2,2,0.2,3.9,0.8,5.8
		c0.4,1.1,0.3,1.2-0.9,1.3c-3,0.1-3.2-0.1-3.3-3.1C113.7,26.1,113.7,25.7,113.7,25.6z"/>
	<path class="st1" d="M46.3,58.9c1.8-0.7,1.8-0.7,1.8-2.8c0-2.7,0-5.5,0-8.2c0-1.4,0.4-3.1-1.9-3.1c0.3-0.5,0.7-0.4,1.1-0.4
		c2.9,0,5.8,0,8.7,0c0.8,0,1.2,0.3,1.1,1.1c-0.1,0.7,0.3,1.4-0.1,2.1c-0.1,0-0.2,0-0.2,0c-0.4-2.1-1.9-2.3-3.7-2.3
		c-2.8,0.1-2.8,0-2.8,2.9c0,2.9,0,2.9,2.8,2.9c1.4,0,2.4-0.5,2.4-2.3c0.6,1,0.6,3.8,0.3,5.1c-0.1-0.1-0.3-0.1-0.3-0.2
		c-0.2-0.7-0.3-1.5-1.1-1.7c-1.2-0.3-2.5-0.3-3.7-0.1c-0.4,0-0.4,0.4-0.4,0.8c0,1.4,0,2.9,0,4.3c0,0.8,0.4,1.2,1.2,1.2
		c0.6,0,1.2,0,1.8,0c1.9,0.2,3.4-0.5,4.2-2.3c0.1-0.2,0.2-0.5,0.8-0.4c-0.4,1.1-0.7,2.2-1.1,3.3c-0.1,0.3-0.4,0.4-0.7,0.4
		c-3.3,0-6.6,0-9.9,0C46.5,59.1,46.5,59,46.3,58.9z"/>
	<path class="st1" d="M203.4,58.9c-0.9,0.3-3.4,0.3-4.4-0.1c1.6-0.5,2-1.9,2.5-3.2c1.4-3.4,2.8-6.9,4.2-10.3c0.2-0.4,0.2-1,0.7-1
		c0.6,0,0.6,0.7,0.7,1.1c1.4,3.4,2.7,6.9,4.1,10.4c0.5,1.3,0.9,2.7,2.6,3.1c0,0.1-0.1,0.2-0.1,0.3c-1.8,0-3.5,0-5.4,0
		c0.4-0.6,1.5-0.5,1.3-1.4c-0.2-1.1-0.6-2.1-1.1-3.1c-0.2-0.3-0.5-0.3-0.8-0.3c-1.3,0-2.5,0-3.8,0c-0.4,0-0.8,0.1-1,0.5
		c-0.3,0.8-0.6,1.5-0.9,2.3c-0.3,0.8-0.1,1.3,0.8,1.5C203.1,58.6,203.4,58.6,203.4,58.9z M206.1,48.1c-0.1,0-0.2,0-0.3,0
		c-0.6,1.5-1.3,3.1-1.9,4.6c-0.2,0.5,0,0.7,0.5,0.7c1,0,2,0,2.9,0c0.6,0,0.8-0.3,0.6-0.8C207.2,51.1,206.7,49.6,206.1,48.1z"/>
	<path class="st0" d="M165.3,15.3c1.1,0,2.3,0,3.4,0c0.3,0,0.6,0,0.7,0.3c0.1,0.4-0.3,0.4-0.5,0.5c-1.3,0.6-1.7,1.2-1.1,2.6
		c1,2.9,2.1,5.7,3.3,8.5c1,2.4,0.9,2.5-1.6,2.5c-0.8,0-1.2-0.4-1.4-1.1c-1.2-3.2-2.5-6.5-3.8-9.7c-0.5-1.3-1.2-2.3-2.6-2.6
		c-0.2-0.1-0.5-0.2-0.5-0.5c0-0.4,0.3-0.4,0.6-0.4C162.9,15.3,164.1,15.3,165.3,15.3C165.3,15.3,165.3,15.3,165.3,15.3z"/>
	<path class="st0" d="M157.6,22.1c0,2,0,4.1,0,6.1c0,1-0.3,1.4-1.3,1.4c-2.2,0-2.2,0-2.2-2.2c0-2.3,0-4.6,0-6.9c0-0.5,0-1-0.1-1.5
		c-0.2-1.2-0.6-1.4-1.8-1.3c-0.4,0-0.8,0.2-1-0.3c-0.1-0.5,0.4-0.5,0.7-0.7c1.3-0.6,2.6-1.2,4-1.8c1.4-0.6,1.7-0.4,1.7,1.1
		C157.6,18.1,157.6,20.1,157.6,22.1z"/>
	<path class="st1" d="M187.8,47.9c-0.2-1.1-0.1-2,0-2.9c0-0.5,0.4-0.5,0.8-0.5c3.3,0,6.6,0,9.9,0c0.5,0,0.8,0.1,0.9,0.7
		c0.1,0.9,0.1,1.8,0,2.6c-0.2,0.2-0.4,0.1-0.4,0c-0.6-2.4-1.9-2.2-3.6-2.1c-0.6,0-0.9,0.3-0.9,0.9c0,3.6,0,7.3,0,10.9
		c0,1.2,1,1.3,1.8,1.7c-1.9,0.2-3.8,0.3-5.9-0.1c2.1-0.1,1.9-1.5,1.9-2.8c0-3.1,0-6.2,0-9.3c0-1-0.3-1.4-1.4-1.3
		c-2,0.1-2.2,0.2-3,2.1C188.1,47.7,188,47.7,187.8,47.9z"/>
	<path class="st0" d="M177.9,15.1c0.7,0,1.4,0,2.1,0c0.3,0,0.7,0.1,0.7,0.4c0.1,0.4-0.2,0.6-0.5,0.7c-1.1,0.3-1.5,1.3-1.9,2.2
		c-1.3,3.3-2.5,6.7-3.7,10c-0.1,0.3-0.2,0.6-0.4,0.8c-0.3,0.4-0.8,0.5-1.2,0.2c-0.4-0.2-0.2-0.6-0.1-0.9c1-2.8,2-5.5,3.1-8.2
		c0.3-0.7,0.5-1.5,0.8-2.2c0.4-1.3,0.1-1.7-1.1-2.1c-0.3-0.1-0.7-0.1-0.7-0.5c0-0.4,0.4-0.4,0.7-0.5
		C176.4,15.1,177.2,15.1,177.9,15.1C177.9,15.1,177.9,15.1,177.9,15.1z"/>
</g>
</svg>
