<?xml version="1.0" encoding="utf-8"?>
<!-- Generator: Adobe Illustrator 23.0.2, SVG Export Plug-In . SVG Version: 6.00 Build 0)  -->
<svg version="1.1" id="Ebene_1" xmlns="http://www.w3.org/2000/svg" xmlns:xlink="http://www.w3.org/1999/xlink" x="0px" y="0px"
	 viewBox="0 0 28 28" style="enable-background:new 0 0 28 28;" xml:space="preserve">
<style type="text/css">
	.st0{fill:#FFFFFF;stroke:#D2D2D2;stroke-miterlimit:10;}
	.st1{fill:#676767;}
</style>
<g>
	<g>
		<circle class="st0" cx="14" cy="14" r="12.5"/>
	</g>
	<g>
		<g>
			<path class="st1" d="M13.5,19.3h1.1c0.7,0,1-0.4,1.3-1c0,0,0.6-1,0.7-1.3c0.7-0.9,1.4-1.9,1.4-3.1c0.3-2.3-1.7-4.1-4-4.1
				s-4.3,1.9-4.3,4.1c0,1.3,0.7,2.1,1.4,3.1c0.3,0.3,0.9,1.4,0.9,1.4C12.5,18.9,12.9,19.3,13.5,19.3z"/>
		</g>
		<g>
			<path class="st1" d="M15.9,21.3c0,0.7-1,1.3-1.9,1.3c-0.9,0-1.9-0.7-1.9-1.3"/>
		</g>
		<g>
			<path class="st1" d="M12.2,21.3v-1.1c0,0,0.6,0.3,1.9,0.3c1.1,0,1.9-0.3,1.9-0.3v1.1H12.2z"/>
		</g>
		<g>
			<rect x="13.7" y="5.4" class="st1" width="0.7" height="2.6"/>
		</g>
		<g>
			<rect x="19.9" y="12" class="st1" width="2.6" height="1.1"/>
		</g>
		<g>
			
				<rect x="17.9" y="8.3" transform="matrix(0.6786 -0.7346 0.7346 0.6786 -0.2814 16.9367)" class="st1" width="2.5" height="1.1"/>
		</g>
		<g>
			<rect x="13.5" y="5.4" class="st1" width="1.1" height="2.6"/>
		</g>
		<g>
			<rect x="5.5" y="12" class="st1" width="2.7" height="1.1"/>
		</g>
		<g>
			<rect x="8.3" y="7.5" transform="matrix(0.7072 -0.707 0.707 0.7072 -3.6198 8.8385)" class="st1" width="1.1" height="2.6"/>
		</g>
	</g>
</g>
</svg>
