<?xml version="1.0" encoding="utf-8"?>
<!-- Generator: Adobe Illustrator 23.0.4, SVG Export Plug-In . SVG Version: 6.00 Build 0)  -->
<svg version="1.1" id="Ebene_1" xmlns="http://www.w3.org/2000/svg" xmlns:xlink="http://www.w3.org/1999/xlink" x="0px" y="0px"
	 viewBox="0 0 28 28" style="enable-background:new 0 0 28 28;" xml:space="preserve">
<style type="text/css">
	.st0{fill:#FFFFFF;stroke:#D2D2D2;stroke-miterlimit:10;}
	.st1{fill:#474747;}
</style>
<g>
	<g>
		<circle class="st0" cx="14" cy="14" r="12.5"/>
	</g>
	<g>
		<path class="st1" d="M14,9.8c-2.3,0-4.3,1.9-4.3,4.1c0,1.3,0.7,2.1,1.4,3.1c0.3,0.3,0.9,1.4,0.9,1.4c0.5,0.5,0.9,0.9,1.5,0.9h1.1
			c0.7,0,1-0.4,1.3-1c0,0,0.2-0.4,0.4-0.7c0.2-0.4,0.5-0.9,0.8-1.3c0.5-0.7,0.9-1.5,0.9-2.4C18.3,11.6,16.3,9.8,14,9.8z"/>
		<path class="st1" d="M12.2,20.2v1.1c0,0.6,1,1.3,1.9,1.3c0.9,0,1.9-0.6,1.9-1.3v-1.1c0,0-0.8,0.3-1.9,0.3
			C12.8,20.5,12.2,20.2,12.2,20.2z"/>
		<rect x="19.9" y="12" class="st1" width="2.6" height="1.1"/>
		<rect x="18" y="8.3" transform="matrix(0.6786 -0.7346 0.7346 0.6786 -0.3085 16.9585)" class="st1" width="2.5" height="1.1"/>
		<polygon class="st1" points="14.4,8 14.6,8 14.6,5.4 14.4,5.4 13.7,5.4 13.5,5.4 13.5,8 13.7,8 		"/>
		<rect x="5.5" y="12" class="st1" width="2.7" height="1.1"/>
		<rect x="8.3" y="7.5" transform="matrix(0.7072 -0.707 0.707 0.7072 -3.6369 8.8357)" class="st1" width="1.1" height="2.6"/>
	</g>
</g>
</svg>
