<svg xmlns="http://www.w3.org/2000/svg" viewBox="0 0 727.2 288.5"><style>.st0{fill:white;}</style><path d="M514.9 151.6L405.2 288.5l322-136.9zm-200.3 0l83.5 126.8 101.7-126.8zm209.3-11h190.2L603.4 41.9zM3.6 27.7V.5h5.6v27.4c0 7.5 4.9 11.7 11.9 11.7S33 35.7 33 27.9V.5h5.6v27.2c0 10.7-7.3 17.2-17.5 17.2S3.6 38.6 3.6 27.7m70.9-7.5c5.8 0 8.7-2.7 8.7-7.3s-2.9-7.3-8.7-7.3h-7v14.6h7zm-2.1 5.1h-4.9v19.2h-5.6V.5H75c8.5 0 14.1 4.9 14.1 12.4 0 6.3-3.9 10.7-10.4 11.9L94 44.4h-6.8L72.4 25.3zm56.8 14c5.8 0 8.7-3.2 8.7-7.5s-2.9-7.5-8.7-7.5h-10.4v15.1l10.4-.1zm-1.5-19.9c4.6 0 7.5-2.9 7.5-6.8 0-3.6-2.7-6.8-7.5-6.8h-9v13.8h9v-.2zM113.2.5h14.6c8.5 0 12.9 5.3 12.9 11.4 0 4.4-1.7 7.3-4.6 9.2 4.4 1.7 7.5 5.1 7.5 10.9 0 8-6.1 12.4-15.3 12.4H113V.5h.2zm58 27.2h18.7V5.8h-8.3l-10.4 21.9zM178.5.5h17v43.9h-5.6V33h-21.1l-5.6 11.4h-6.1L178.5.5zm40.8-.5v44.4h5.5v-32l25.8 23.3v8.7h5.6V.5h-5.6v27.9zM0 84.5c0-12.9 10-22.6 22.6-22.6 5.6 0 10.4 1.7 14.3 5.1l-3.4 4.4c-2.9-2.4-6.6-4.1-10.9-4.1-9.7 0-16.8 7.5-16.8 17s7 17 16.8 17c4.4 0 8-1.7 10.9-4.1l3.4 4.4c-3.9 3.4-8.7 5.1-14.3 5.1C9.7 106.8 0 97.1 0 84.5m92.8 0c0-9.7-7-17-16.8-17s-16.8 7.5-16.8 17 7 17 16.8 17 16.8-7.5 16.8-17m-39.1 0c0-12.9 10-22.6 22.6-22.6s22.6 9.7 22.6 22.6-10 22.6-22.6 22.6-22.6-10-22.6-22.6m65.5-22.6l21.4 23.6 21.6-23.6v44.5h-5.8V75.8l-15.8 17.7-15.8-17.7v30.6h-5.6zM198.1 84c6.3 0 9.7-2.9 9.7-8.3 0-5.1-3.4-8.3-9.7-8.3h-6.6V84h6.6zm-12.3-21.6h12.4c9.2 0 15.3 5.1 15.3 13.4s-6.1 13.4-15.3 13.4h-6.8v17h-5.6V62.4zm47.1 0h5.8V101h18.4v5.4h-24.2zm43.2 0h25.5V68h-19.7v13.1h16v5.6h-16V101h19.7v5.4h-25.5zm60 23.3l-11.2 20.7h-6.1l13.9-25.8-13.2-18.2h6.6l14.3 19.9 10.5-19.9h6l-13.1 24.8 13.9 19.2h-6.8zm41.2-23.3h5.6v43.9h-5.6zM415 68h-12.7v-5.6h30.6V68h-12.3v38.4H415zm64.3-5.6l-12.4 19.9-12.4-19.9H448l16 25.3v18.7h5.6V87.7l16.3-25.3zM3.6 124.3v44h24.1v-5.4H9.2v-38.6zm62.7 5.6h8.3v21.9H55.8l10.5-21.9zm-3.2-5.6l-21.1 44h6.1l5.6-11.4h21.1v11.4h5.6v-43.9H63.1zm56.8 38.9c5.8 0 8.7-3.2 8.7-7.5 0-4.4-2.9-7.5-8.7-7.5h-10.4v15.1h10.4zm-1.4-19.9c4.6 0 7.5-2.9 7.5-6.8 0-3.6-2.7-6.8-7.5-6.8h-9v13.8h9v-.2zm-14.6-19h14.6c8.5 0 12.9 5.3 12.9 11.4 0 4.4-1.7 7.3-4.6 9.2 4.4 1.7 7.5 5.1 7.5 10.9 0 8-6.1 12.4-15.3 12.4h-15.3v-43.9h.2z" class="st0"/></svg>
