<?xml version="1.0" encoding="utf-8"?>
<!-- Generator: Adobe Illustrator 23.0.2, SVG Export Plug-In . SVG Version: 6.00 Build 0)  -->
<svg version="1.1" id="svg3295" xmlns:svg="http://www.w3.org/2000/svg"
	 xmlns="http://www.w3.org/2000/svg" xmlns:xlink="http://www.w3.org/1999/xlink" x="0px" y="0px" viewBox="0 0 768 768"
	 style="enable-background:new 0 0 768 768;" xml:space="preserve">
<style type="text/css">
	.st0{fill:#FFFFFF;}
</style>
<path id="path2905" class="st0" d="M44.6,269c7.2,2.3,15-1.6,17.3-8.8c2.3-7.2-1.6-15-8.8-17.3c-7.2-2.4-15,1.6-17.3,8.8
	C33.4,258.9,37.3,266.7,44.6,269"/>
<path id="path2909" class="st0" d="M37.6,439c7.5-1.2,12.6-8.2,11.4-15.7c-1.2-7.5-8.2-12.6-15.7-11.4c-7.5,1.2-12.6,8.2-11.4,15.7
	C23.1,435.1,30.1,440.2,37.6,439"/>
<path id="path2913" class="st0" d="M108.6,593.6c6.1-4.5,7.5-13.1,3.1-19.2c-4.5-6.2-13.1-7.5-19.2-3c-6.1,4.4-7.5,13-3,19.2
	C93.9,596.7,102.5,598,108.6,593.6"/>
<path id="path2917" class="st0" d="M242,699.1c3.5-6.8,0.8-15.1-6-18.5c-6.8-3.4-15.1-0.7-18.5,6c-3.4,6.8-0.7,15,6.1,18.5
	C230.3,708.5,238.6,705.9,242,699.1"/>
<path id="path2921" class="st0" d="M408.8,732.5c0-7.6-6.1-13.8-13.7-13.8c-7.6,0-13.8,6.1-13.8,13.8c0,7.6,6.2,13.7,13.8,13.7
	C402.7,746.3,408.8,740.1,408.8,732.5"/>
<path id="path2925" class="st0" d="M189.5,71.6l-6,5.1l26.1,30.7c7.3,8.6,9,16.8,5.4,26.1c-1.9,4.7-4.9,8.9-8.9,12.3
	c-11.7,10-26.9,9.6-35.8-1l-28.1-32.9l-6,5.1l-2.5-3l19.2-16.3l2.5,3l-6,5.1l25.9,30.4c8.3,9.7,19.4,11.2,28.4,3.6
	c9.2-7.8,9.8-19.6,1.6-29.3l-25.9-30.3l-6,5.1l-2.5-3L187,68.6L189.5,71.6z"/>
<path id="path2929" class="st0" d="M283.3,95.5l-21.1,11.2l-1.8-3.5l7-3.7l-14.5-27.4c-2.6-5-6.8-6.7-10.9-4.5
	c-4,2.1-5.4,5.1-8.6,18.8l12.9,24.3l7.1-3.8l1.8,3.5l-21.2,11.2l-1.8-3.5l7.1-3.8l-17.8-33.7l-8.1,4.3l-1.3-2.5l11.5-10.8l1.7-0.9
	l5.5,10.5c2.7-11.8,5.4-16.5,11.4-19.7c6.9-3.7,13.6-1.5,17.4,5.8l15,28.3l7-3.7L283.3,95.5z"/>
<path id="path2933" class="st0" d="M276.4,22.1c3-1,6.1,0.5,7.1,3.4c1,3-0.5,6.1-3.5,7.1c-2.9,1-6-0.5-7-3.5
	C271.9,26.1,273.5,23,276.4,22.1 M311.7,86.7L289,94.5l-1.3-3.7l7.6-2.6l-12.4-36l-8.7,3l-0.9-2.7l13.1-8.9l1.8-0.6l14.6,42.6
	l7.6-2.6L311.7,86.7z"/>
<path id="path2937" class="st0" d="M350.6,33.1l-4.4,0.9l-7.9,47.9l-2.1,0.4l-27.1-40.7l-4.4,0.8l-0.8-3.8l20.1-4.1l0.8,3.8
	l-7.3,1.5l18.5,28.1l5.4-32.9l-6.9,1.4l-0.8-3.8l16-3.2L350.6,33.1z"/>
<path id="path2941" class="st0" d="M400.2,66.2c-5.8,4.1-8.6,5.2-12.8,5.4c-10,0.4-17.4-8.5-17.9-21.7l0-1.2l33.3-1.4l-0.1-2.9
	c-0.5-11.4-8.6-18.9-20-18.5c-13.1,0.5-22.3,11.7-21.7,26.5c0.6,14.6,10.5,24.6,24,24c6.1-0.2,9.8-1.7,17.5-6.5L400.2,66.2z
	 M369.3,44.5c0.6-8.3,5.8-13.7,13.5-14c6.1-0.3,10.7,4.1,10.9,10.4l0.1,2.5L369.3,44.5z"/>
<path id="path2945" class="st0" d="M434.9,77.6l-26-2.7l0.4-3.9l8,0.8l3.9-37.9l-9.2-0.9l0.3-2.9l15.6-2.5l1.9,0.2l-1.2,11.8
	c8.6-8.9,11.5-10.9,15.3-10.6c1.3,0.1,2.3,0.6,2.9,1.3l2.9,3.2l-6.8,6.7c-1.9-2.2-3.3-3.3-4.3-3.4c-1.9-0.2-4,1.4-10.5,7.9l-2.9,28
	l10.1,1L434.9,77.6z"/>
<path id="path2949" class="st0" d="M452,81.3l-4.1-1l3.5-14.6l4.7,1.1l-0.7,2.8c-1.1,4.4,3.8,9.7,10.1,11.3
	c5.6,1.4,10.6-0.6,11.6-4.7c1-4.1-1.3-7.1-11.1-13.9c-8.9-6.2-11.5-10.8-9.9-17.3c1.9-8,9.7-11.9,19.2-9.6c4.5,1.1,7.7,3.1,10,6.1
	l1.5-3.5l4.4,1.1l-6.1,14.2l-4.4-1.1c0.7-1,1.2-2.3,1.4-3.2c1-4-2.9-8.4-8.4-9.8c-5.3-1.3-9.5,0.7-10.6,5.2
	c-1.1,4.4-0.5,5.1,10.7,13.2c9.1,6.5,11.5,10.6,9.9,17.2c-2,8.2-9.8,12.4-18.9,10.2c-5.8-1.4-9.8-3.8-12.1-7.3L452,81.3z"/>
<path id="path2953" class="st0" d="M524.4,25.9c3,1.1,4.4,4.3,3.3,7.1c-1.1,3-4.3,4.4-7.2,3.3c-2.9-1.1-4.3-4.2-3.2-7.2
	C518.4,26.3,521.5,24.9,524.4,25.9 M510.4,98.3l-22.5-8.5l1.4-3.7l7.5,2.8l13.5-35.6l-8.6-3.3l1-2.7l15.7,1.5l1.8,0.7l-15.9,42.2
	l7.5,2.8L510.4,98.3z"/>
<path id="path2957" class="st0" d="M542,108.9c-7,1.5-9.3,1.4-12.8-0.4c-5.5-2.7-7.1-7.8-4.2-13.6l14.6-29.3l-8.2-4.1l1.3-2.6l9.3,2
	l6.5-13.1l6.8,3.4l-6.7,13.3l11.7,5.9l-2.2,4.3l-11.7-5.9l-14.2,28.4c-1.8,3.6-1.2,5.5,1.9,7.1c2,1,3.4,1.2,7.6,0.9L542,108.9z"/>
<path id="path2961" class="st0" d="M571.6,121.1c-6.2,0.8-9.3,0.4-12.1-1.5c-3.7-2.5-4.4-6.5-1.9-10.1l3-4.4l17.3,6.8L571.6,121.1z
	 M591.3,71.9c1.7-2.4,1.1-5.8-1.3-7.4c-2.4-1.7-5.7-1-7.4,1.5c-1.6,2.3-1.1,5.7,1.4,7.4C586.4,75,589.7,74.3,591.3,71.9
	 M581.8,134.8l-6.7-4.6l18.5-26.8c3.9-5.8,1.5-13.1-6.1-18.3c-7.9-5.4-16.4-5.7-19.8-0.7c-0.7,1-0.9,1.5-1,2.9l9.3,3l2.9-4.2
	c3.4,0.5,4.7,1,6.4,2.2c3.5,2.4,4.4,6.7,2,10.2l-6.8,9.8l-17.2-6.8c-4.9-1.9-10.3-0.2-13.3,4.2c-4,5.8-2.4,13.1,3.6,17.2
	c4.6,3.2,9.2,3.6,16,1.6c-0.2,0.3-0.4,0.6-0.6,0.9c-2.2,3.2-2,6.2,0.7,8.1c0.7,0.5,2.1,1.1,3.5,1.5l7.1,2.2L581.8,134.8z
	 M606.8,82.5c1.7-2.4,1.1-5.8-1.3-7.4c-2.4-1.7-5.7-1-7.4,1.4c-1.6,2.4-1.1,5.7,1.4,7.4C601.9,85.6,605.2,84.9,606.8,82.5"/>
<path id="path2965" class="st0" d="M605,156.8c-7.1-0.4-9.3-1.1-12.3-3.7c-4.6-4.1-4.8-9.4-0.5-14.2l21.8-24.4l-6.9-6.1l1.9-2.1
	l8.4,4.4l9.7-10.9l5.7,5.1l-9.9,11.1l9.8,8.7l-3.2,3.6l-9.8-8.7l-21.2,23.7c-2.7,3-2.6,5,0,7.3c1.6,1.5,3,2.1,7,2.9L605,156.8z"/>
<path id="path2969" class="st0" d="M107.6,426.8l-5.1-25.6l3.8-0.8l1.5,7.8l60.8-12l-1.5-7.8l3.8-0.8l5.9,29.7
	c2.4,12-4.1,22-15.7,24.2c-11.6,2.3-22.6-5.8-25.1-18.6c-0.4-2-0.5-3.1-0.5-5.9l3.6-0.7c0,1.4,0.1,1.9,0.2,2.9
	c1.7,8.9,10.7,14.8,19.9,13c8.3-1.6,13.9-8.4,12.5-15.3l-2.2-11.3l-59.9,11.8l1.7,8.8L107.6,426.8z"/>
<path id="path2973" class="st0" d="M125.8,488.2c5.2,11.7,19.8,16.5,32.5,10.8c12.8-5.7,18.9-19.8,13.7-31.5
	c-5.2-11.7-19.8-16.5-32.5-10.8C126.7,462.4,120.5,476.5,125.8,488.2 M167.9,469.4c3.2,7.2-2.5,16.6-13.2,21.4
	c-10.7,4.8-21.6,2.8-24.8-4.5c-3.2-7.2,2.7-16.6,13.3-21.3C153.8,460.2,164.6,462.1,167.9,469.4"/>
<path id="path2977" class="st0" d="M166,545.1c-6.8-2.1-8.8-3.3-11.1-6.5c-3.5-5.1-2.5-10.3,2.9-13.9l26.9-18.6l-5.2-7.6l2.3-1.6
	l7.1,6.3l12-8.3l4.3,6.3l-12.3,8.5l7.4,10.8l-4,2.8l-7.4-10.8l-26.1,18c-3.3,2.3-3.8,4.2-1.8,7.1c1.3,1.8,2.4,2.7,6.2,4.5L166,545.1
	z"/>
<path id="path2981" class="st0" d="M174.8,563.9l-3-3l10.8-10.4l3.4,3.5l-2,2c-3.3,3.2-2.1,10.2,2.5,14.9c4,4.2,9.3,5.2,12.3,2.2
	c3-2.9,2.6-6.7-2-17.7c-4.2-10-3.9-15.3,0.9-20c6-5.7,14.6-4.8,21.4,2.2c3.2,3.3,4.9,6.7,5.2,10.6l3.2-2.2l3.2,3.3l-12.7,8.8
	l-3.2-3.3c1.1-0.5,2.3-1.3,2.9-2c3-2.9,2.1-8.6-1.9-12.7c-3.8-3.9-8.5-4.5-11.7-1.3c-3.3,3.2-3.1,4.1,2,16.9
	c4.2,10.3,4,15.1-0.9,19.8c-6.1,5.9-14.9,5.3-21.4-1.5c-4.1-4.2-6.2-8.4-6.3-12.6L174.8,563.9z"/>
<path id="path2985" class="st0" d="M256.6,621.6l-7.6-5.2l40.4-59.6l-1.7-1.1l-14.9-5.1l-1.6,2.4l7.6,5.2l-13.7,20.2
	c-2.1-4-3.4-5.5-6.4-7.5c-11.5-7.8-27.3-4.3-35.5,7.8c-7.6,11.2-6.4,24.9,2.7,31.1c4.5,3,8.6,3.5,16.7,2l-4.1,6.1l1.7,1.1l14.9,5.2
	L256.6,621.6z M241.5,607.7c-4.7,0.3-6.3-0.1-9.1-1.9c-7.2-4.9-7.5-13.6-0.8-23.4c6.8-10.1,17.1-13,25.6-7.2c5.2,3.5,5.7,6.5,2,12
	l-13.8,20.3C243.6,607.5,242.3,607.6,241.5,607.7"/>
<path id="path2989" class="st0" d="M308.8,644.3l-7.6-3l12.1-30.3c2.6-6.5-1.4-13.1-10-16.5c-8.9-3.6-17.2-2-19.5,3.7
	c-0.4,1.1-0.5,1.6-0.3,3.1l9.8,0.9l1.9-4.7c3.4-0.2,4.8,0,6.8,0.8c3.9,1.6,5.7,5.6,4.2,9.5l-4.4,11.1l-18.3-2.9
	c-5.1-0.8-10,2-12,7.1c-2.6,6.6,0.5,13.3,7.3,16c5.2,2.1,9.8,1.5,15.9-2c-0.2,0.4-0.3,0.7-0.4,1c-1.4,3.6-0.5,6.5,2.5,7.7
	c0.8,0.3,2.3,0.6,3.7,0.7l7.4,0.6L308.8,644.3z M295.9,633.3c-5.8,2.1-8.9,2.5-12.1,1.2c-4.1-1.6-5.7-5.3-4.1-9.5l2-4.9l18.4,2.8
	L295.9,633.3z"/>
<path id="path2993" class="st0" d="M410.4,664.5l-23.8-2.3l0.4-3.9l8,0.8l3-30.8c0.6-5.7-2-9.2-6.6-9.7c-3.5-0.3-6.4,1-11.4,5.4
	l-6.2,5.5l-2.7,27.4l7.9,0.8l-0.4,3.9l-23.8-2.3l0.4-3.9l7.9,0.8l3-30.8c0.5-5.6-2-9.3-6.6-9.8c-4.5-0.5-7.4,1.3-17.5,10.9
	l-2.7,27.4l8,0.8l-0.4,3.9l-23.9-2.3l0.4-3.9l8,0.8l3.7-37.9L326,614l0.3-2.8l15.5-2.6l1.9,0.2l-1.2,11.8
	c8.8-8.4,13.6-10.8,20.3-10.1c7.5,0.7,11.2,5,11.5,13.2c8.8-8.4,13.6-10.8,20.2-10.1c7.8,0.8,12.1,6.3,11.4,14.3l-3.1,32l7.9,0.8
	L410.4,664.5z"/>
<path id="path2995" class="st0" d="M531.5,342.6h-13.8v86.6h13.8V342.6z M568.6,342.6h-26.5v86.6h26.5V342.6z M515.7,487.2H595
	v-46.4h-79.3V487.2z M467.4,464.1c0,9.6,15.9,18.1,39.9,23v-46.1C485.9,445.5,467.4,453.5,467.4,464.1 M436.4,342.5h-13.9v86.7h13.9
	V342.5z M450.9,429.2h13.8v-86.7h-13.8V429.2z M479.2,429.2h13.9v-86.7h-13.9V429.2z M507.3,498.5v28.9c-38-5.6-65.2-17.8-71-32.3
	h-28.4V322.6h99.4v106.7c-41.6,5.9-70.7,19.4-70.5,34.8C437,481.5,473,493.8,507.3,498.5 M593,342.6h-13.9v86.6H593V342.6z
	 M643.3,464.1c0-10.6-18.5-18.7-39.9-23v46.1C627.4,482.3,643.3,473.8,643.3,464.1 M617.6,429.2h13.9v-86.7h-13.9V429.2z
	 M645.9,429.2h13.9v-86.7h-13.9V429.2z M674.3,429.2h13.9v-86.7h-13.9V429.2z M603.4,322.6h99.4v172.5h-28.4
	c-5.7,14.6-32.9,26.7-71,32.3v-28.9c34.4-4.7,70.3-17,70.5-34.5c0.2-15.4-29-28.9-70.5-34.8V322.6z M407.9,303.2
	c-0.5-1.5-0.9-3.6-0.9-6c0-4.5,1.2-8.2,2.8-8.2c1.5,0,2.8,3.7,2.8,8.2c0,2.4-0.4,4.5-0.9,6h21.5c-0.5-1.5-0.9-3.6-0.9-6
	c0-4.5,1.3-8.2,2.8-8.2c1.5,0,2.8,3.7,2.8,8.2c0,2.4-0.3,4.5-0.9,6h21.3c-0.5-1.5-0.9-3.6-0.9-6c0-4.5,1.2-8.2,2.8-8.2
	c1.5,0,2.8,3.7,2.8,8.2c0,2.4-0.3,4.5-0.9,6h21.3c-0.5-1.5-0.9-3.6-0.9-6c0-4.5,1.2-8.2,2.8-8.2c1.5,0,2.8,3.7,2.8,8.2
	c0,2.4-0.3,4.5-0.9,6h20.3v-30.5h6.9c0.8-2.1,2-5.9,1.9-10.2c-0.7-22,11.2-40.2,37.2-41.1c-0.5-1.5-0.8-3.4-0.8-5.6
	c0-4.5,1.3-8.2,2.8-8.2c1.5,0,2.8,3.7,2.8,8.2c0,2.2-0.3,4.2-0.8,5.6c26,0.9,37.9,19.1,37.2,41.1c-0.1,4.3,1.1,8.1,1.9,10.2h6.9
	v30.5h20.2c-0.5-1.5-0.9-3.6-0.9-6c0-4.5,1.2-8.2,2.8-8.2c1.5,0,2.8,3.7,2.8,8.2c0,2.4-0.3,4.5-0.9,6h21.3c-0.5-1.5-0.9-3.6-0.9-6
	c0-4.5,1.2-8.2,2.8-8.2c1.5,0,2.8,3.7,2.8,8.2c0,2.4-0.4,4.5-0.9,6h21.3c-0.6-1.5-0.9-3.6-0.9-6c0-4.5,1.2-8.2,2.8-8.2
	c1.5,0,2.8,3.7,2.8,8.2c0,2.4-0.4,4.5-0.9,6H699c-0.6-1.5-0.9-3.6-0.9-6c0-4.5,1.2-8.2,2.8-8.2c1.5,0,2.8,3.7,2.8,8.2
	c0,2.4-0.4,4.5-0.9,6v11.4h-99.4v7.8h-96.1v-7.8h96l-48-25.7l-48,25.7h-99.4V303.2z"/>
</svg>
