<?xml version="1.0" encoding="utf-8"?>
<!-- Generator: Adobe Illustrator 23.0.4, SVG Export Plug-In . SVG Version: 6.00 Build 0)  -->
<svg version="1.1" id="Ebene_1" xmlns="http://www.w3.org/2000/svg" xmlns:xlink="http://www.w3.org/1999/xlink" x="0px" y="0px"
	 viewBox="0 0 1024 768" style="enable-background:new 0 0 1024 768;" xml:space="preserve">
<style type="text/css">
	.st0{fill:none;stroke:#F6E6D7;stroke-width:2;stroke-miterlimit:10;}
	.st1{fill:#F6E6D7;}
	.st2{fill:none;stroke:#1D1E1C;stroke-miterlimit:10;}
	.st3{fill:none;stroke:#1D1E1C;stroke-linejoin:round;stroke-miterlimit:10;}
	.st4{fill:#1D1D1B;}
	.st5{font-family:'Roboto-Bold';}
	.st6{font-size:15.8626px;}
	.st7{fill:none;}
	.st8{font-family:'Roboto-Regular';}
	.st9{font-size:10.9099px;}
	.st10{opacity:0.46;}
	.st11{fill:none;stroke:#494847;stroke-width:4;stroke-miterlimit:10;}
	.st12{fill:#494847;}
	.st13{fill:#5C5C5C;}
	.st14{fill:#E54F36;}
	.st15{fill:#70A9DC;}
	.st16{fill:#CC9E37;}
	.st17{fill:#DF87B7;}
</style>
<circle class="st0" cx="33.8" cy="277.8" r="24.5"/>
<circle class="st1" cx="33.8" cy="27.8" r="19.8"/>
<circle class="st1" cx="33.8" cy="277.8" r="19.8"/>
<circle class="st1" cx="34.9" cy="531.5" r="19.8"/>
<image style="overflow:visible;" width="3358" height="1809" xlink:href="5B6F4256E34E4C6F.jpg"  transform="matrix(0.1178 0 0 0.1178 80.0307 286.4948)">
</image>
<image style="overflow:visible;" width="3358" height="1811" xlink:href="5B6F4256E34E4C6A.jpg"  transform="matrix(0.1178 0 0 0.1178 80.0307 540.8228)">
</image>
<image style="overflow:visible;" width="3360" height="1792" xlink:href="../../../Jobs/UCLab/Fontane meets Falte/dhdscreens-neu/17.jpg"  transform="matrix(5.926487e-02 0 0 5.926487e-02 530.5851 540.8228)">
</image>
<image style="overflow:visible;" width="3350" height="1808" xlink:href="../../../Jobs/UCLab/Fontane meets Falte/dhdscreens-neu/12.jpg"  transform="matrix(5.944178e-02 0 0 5.944178e-02 530.5851 286.4948)">
</image>
<g>
	<polygon class="st2" points="28.3,540.2 28.3,522.6 36.5,522.6 41.5,527.7 41.5,540.3 	"/>
	<polyline class="st2" points="36.5,522.6 36.5,527.7 41.5,527.7 	"/>
</g>
<g>
	<path class="st3" d="M34.5,35.8l-9-1.6c0,0-1.9-1.4,0-3l9,1.4l8.4-4.9c0,0-1.2,1.8,0,3.2L34.5,35.8z"/>
	<path class="st3" d="M34.5,35.8c0,0-1.6-1.2-0.1-3.2"/>
	<path class="st3" d="M42.8,27.6c0,0-1.2,1.8,0,3.2l-8.3,4.9l-9-1.6c0,0-1.9-1.4,0-3l9,1.4"/>
	<path class="st3" d="M34.4,32.6"/>
	<path class="st3" d="M34.5,35.8"/>
	<path class="st3" d="M25.5,31.1c0,0-1.9-1.8,0-3.4l9,1.6l8.4-4.9c0,0-1.2,1.8,0,3.2"/>
	<path class="st3" d="M34.5,32.5"/>
	<path class="st3" d="M34.5,29.3"/>
	<path class="st3" d="M34.5,32.5"/>
	<path class="st3" d="M34.5,32.5c0,0-1.4-1.2-0.1-3.2"/>
	<path class="st3" d="M25.5,27.7c0,0-1.9-1.4,0-3l8.9,1.4l8.4-4.9c0,0-1.1,1.8,0.1,3.2"/>
	<path class="st3" d="M34.4,29.3c0,0-1.5-1.4-0.1-3.2"/>
	<path class="st3" d="M42.9,24.4"/>
	<path class="st3" d="M34.3,24"/>
	<path class="st3" d="M25.5,24.7l8-4.8l9.3,1.4l-8.4,4.9L25.5,24.7c-1.9,1.6,0,3,0,3"/>
</g>
<g>
	<path class="st2" d="M39.9,285.9h-9.8c-1.4,0-2.6-0.6-2.6-2v-11.6c0-1.4,1.1-2.6,2.6-2.6h9.8C39.9,269.7,39.9,285.9,39.9,285.9z"/>
	<path class="st2" d="M39.6,283.5l-10.3-0.1c-1.3,0.1-1.6,0.1-1.6,0.9"/>
	<line class="st2" x1="30.6" y1="274.9" x2="37.4" y2="274.9"/>
	<path class="st2" d="M40,284.6"/>
</g>
<text transform="matrix(1 0 0 1 80.0581 30.4873)" class="st4 st5 st6">Autor*innen-Ebene</text>
<text transform="matrix(1 0 0 1 80.0581 281.0947)" class="st4 st5 st6">Buch-Ebene</text>
<text transform="matrix(1 0 0 1 80.0581 534.8096)" class="st4 st5 st6">Seiten-Ebene</text>
<g>
	<rect x="530.6" y="151.9" class="st7" width="430.4" height="94.6"/>
	<text transform="matrix(1 0 0 1 530.585 161.2529)"><tspan x="0" y="0" class="st4 st8 st9">Auf der Autor*innen-Ebene finden sich alle Bücher aller Autor*innen zusammengefasst, </tspan><tspan x="0" y="13.1" class="st4 st8 st9">indem die Gesamtverteilung der Lesespuren in Form eines Flächen-Diagramms darge</tspan><tspan x="416.7" y="13.1" class="st4 st8 st9">-</tspan><tspan x="0" y="26.2" class="st4 st8 st9">stellt wird. Hier wird ein Vergleich von Lektürespuren, verteilt über die Werke unter</tspan><tspan x="399.7" y="26.2" class="st4 st8 st9">-</tspan><tspan x="0" y="39.3" class="st4 st8 st9">schiedlicher Autor*innen, möglich. Zusätzlich lassen sich durch die höhere Abstraktion </tspan><tspan x="0" y="52.4" class="st4 st8 st9">übergreifende Muster erkennen. </tspan></text>
</g>
<g class="st10">
	<g>
		<line class="st11" x1="33.8" y1="330" x2="33.8" y2="495.2"/>
		<g>
			<polygon class="st12" points="27,338 33.8,331.2 40.6,338 40.6,332.2 33.8,325.4 27,332.2 			"/>
		</g>
		<g>
			<polygon class="st12" points="27,487.2 33.8,494 40.6,487.2 40.6,493 33.8,499.8 27,493 			"/>
		</g>
	</g>
</g>
<image style="overflow:visible;" width="3360" height="1808" xlink:href="../../../../ich/Desktop/screenshots/Bildschirmfoto 2019-05-27 um 16.53.18.png"  transform="matrix(5.926487e-02 0 0 5.926487e-02 530.5851 36.2018)">
</image>
<image style="overflow:visible;" width="3357" height="1807" xlink:href="5B6F4256E34E4C75.png"  transform="matrix(0.1178 0 0 0.1178 80.0307 36.2018)">
</image>
<image style="overflow:visible;" width="3361" height="1807" xlink:href="5B6F4256E34E4C7A.png"  transform="matrix(5.926487e-02 0 0 5.926487e-02 762 36)">
</image>
<image style="overflow:visible;" width="3360" height="1810" xlink:href="../../../../ich/Desktop/screenshots/Bildschirmfoto 2019-05-27 um 17.00.15.png"  transform="matrix(5.926487e-02 0 0 5.926487e-02 762 541)">
</image>
<image style="overflow:visible;" width="3360" height="1808" xlink:href="../../../../ich/Desktop/screenshots/Bildschirmfoto 2019-05-27 um 17.03.29.png"  transform="matrix(5.926487e-02 0 0 5.926487e-02 762 286)">
</image>
<rect x="530.6" y="402.1" class="st7" width="430.4" height="119.4"/>
<text transform="matrix(1 0 0 1 530.585 411.4355)"><tspan x="0" y="0" class="st4 st8 st9">Ausgangspunkt für die Exploration der </tspan><tspan x="0" y="13.1" class="st4 st8 st9">Visualisierung ist die Buch-Ebene, die </tspan><tspan x="0" y="26.2" class="st4 st8 st9">eine Übersicht allerBücher der Handbib</tspan><tspan x="191.4" y="26.2" class="st4 st8 st9">-</tspan><tspan x="0" y="39.3" class="st4 st8 st9">liothek, geordnet nach Autor*innen, </tspan><tspan x="0" y="52.4" class="st4 st8 st9">darstellt. Jedes Buch wird durch einen </tspan><tspan x="0" y="65.5" class="st4 st8 st9">vertikalen Balken dargestellt, in dem </tspan><tspan x="0" y="78.6" class="st4 st8 st9">eine Seite wiederum durch ein abge</tspan><tspan x="174.2" y="78.6" class="st4 st8 st9">-</tspan><tspan x="0" y="91.6" class="st4 st8 st9">grenztes Segment repräsentiert wird, </tspan><tspan x="0" y="104.7" class="st4 st8 st9">sodass sich eine Leseordnung der </tspan><tspan x="232.7" y="0" class="st4 st8 st9">einzelnen Bücher von oben nach unten </tspan><tspan x="232.7" y="13.1" class="st4 st8 st9">ergibt. Die Seitensegmente sind farblich </tspan><tspan x="232.7" y="26.2" class="st4 st8 st9">entsprechend ihrer Lesespuren kodiert. </tspan><tspan x="232.7" y="39.3" class="st4 st8 st9">Während Seiten ohne Spuren weiß </tspan><tspan x="232.7" y="52.4" class="st4 st8 st9">dargestellt werden, unterteilen sich die </tspan><tspan x="232.7" y="65.5" class="st4 st8 st9">farbigen Lesespuren in die Kategorien: </tspan><tspan x="232.7" y="78.6" class="st13 st5 st9">Provenienzangaben</tspan><tspan x="329.8" y="78.6" class="st4 st8 st9">, </tspan><tspan x="334.7" y="78.6" class="st14 st5 st9">Marginalien</tspan><tspan x="392.8" y="78.6" class="st4 st8 st9">, </tspan><tspan x="232.7" y="91.6" class="st15 st5 st9">Markierungen</tspan><tspan x="300.7" y="91.6" class="st4 st8 st9">, </tspan><tspan x="305.5" y="91.6" class="st16 st5 st9">zusätzliches Material</tspan><tspan x="410.3" y="91.6" class="st4 st8 st9"> </tspan><tspan x="232.7" y="104.7" class="st4 st8 st9">und</tspan><tspan x="251.3" y="104.7" class="st17 st8 st9"> </tspan><tspan x="254" y="104.7" class="st17 st5 st9">Anderes</tspan><tspan x="294.3" y="104.7" class="st4 st8 st9">.</tspan></text>
<rect x="530.6" y="656.6" class="st7" width="430.4" height="124.4"/>
<text transform="matrix(1 0 0 1 530.585 665.9805)"><tspan x="0" y="0" class="st4 st8 st9">In der Seiten-Ebene wird die Visualisierung ins Detail entfaltet, sodass für eine*n ausge</tspan><tspan x="424.3" y="0" class="st4 st8 st9">-</tspan><tspan x="0" y="13.1" class="st4 st8 st9">wählte*n Autor*in einzelne Seiten gezielt angesteuert werden können und Marginalien </tspan><tspan x="0" y="26.2" class="st4 st8 st9">detailliert auch in der Transkription sichtbar werden. Die Auswahl eines Buches auf </tspan><tspan x="0" y="39.3" class="st4 st8 st9">Seiten-Ebene erlaubt Zugriff auf jede einzelne Schriftspur/Seite, inkl. der transkribierten </tspan><tspan x="0" y="52.4" class="st4 st8 st9">Marginalien und einer (vermuteten) Identifizierung der Urheber*innen einer Marginalie.</tspan></text>
<g class="st10">
	<g>
		<line class="st11" x1="33.8" y1="71.9" x2="33.8" y2="237.1"/>
		<g>
			<polygon class="st12" points="27,79.8 33.8,73.1 40.6,79.8 40.6,74.1 33.8,67.3 27,74.1 			"/>
		</g>
		<g>
			<polygon class="st12" points="27,229.1 33.8,235.9 40.6,229.1 40.6,234.9 33.8,241.7 27,234.9 			"/>
		</g>
	</g>
</g>
</svg>
